<svg width="272" height="308" viewBox="0 0 272 308" fill="none" xmlns="http://www.w3.org/2000/svg">
<mask id="mask0_0_66" style="mask-type:alpha" maskUnits="userSpaceOnUse" x="0" y="0" width="272" height="308">
<path d="M250 308H22C9.84974 308 0 298.15 0 286V22C0 9.84974 9.84974 0 22 0H170L272 102V286C272 298.15 262.15 308 250 308Z" fill="url(#paint0_linear_0_66)"/>
</mask>
<g mask="url(#mask0_0_66)">
<path d="M250 308H22C9.84974 308 0 298.15 0 286V22C0 9.84974 9.84974 0 22 0H170L272 102V286C272 298.15 262.15 308 250 308Z" fill="url(#paint1_linear_0_66)"/>
<g opacity="0.26" filter="url(#filter0_f_0_66)">
<rect x="48" y="149" width="178" height="84" fill="#E66000" style="mix-blend-mode:darken"/>
</g>
<path d="M100.506 217.395C99.4523 217.395 98.5833 217.053 97.8986 216.368C97.2666 215.683 96.9506 214.841 96.9506 213.84C96.9506 213.419 97.0823 212.892 97.3456 212.26L117.491 164.702C117.912 163.754 118.491 162.99 119.229 162.411C120.019 161.779 120.967 161.463 122.073 161.463H122.863C123.969 161.463 124.89 161.779 125.628 162.411C126.418 162.99 127.023 163.754 127.445 164.702L147.59 212.26C147.853 212.892 147.985 213.419 147.985 213.84C147.985 214.841 147.642 215.683 146.958 216.368C146.326 217.053 145.483 217.395 144.43 217.395C143.692 217.395 143.008 217.211 142.376 216.842C141.796 216.421 141.349 215.868 141.033 215.183L135.898 202.859H109.038L103.903 215.183C103.587 215.868 103.113 216.421 102.481 216.842C101.901 217.211 101.243 217.395 100.506 217.395ZM111.803 196.302H133.133L122.468 170.627L111.803 196.302ZM168.69 217.395C167.689 217.395 166.847 217.053 166.162 216.368C165.477 215.683 165.135 214.841 165.135 213.84V165.097C165.135 164.096 165.477 163.254 166.162 162.569C166.847 161.832 167.689 161.463 168.69 161.463C169.691 161.463 170.533 161.832 171.218 162.569C171.955 163.254 172.324 164.096 172.324 165.097V213.84C172.324 214.841 171.955 215.683 171.218 216.368C170.533 217.053 169.691 217.395 168.69 217.395Z" fill="white"/>
<path d="M97.8986 216.368L96.429 217.725L96.4561 217.754L96.4844 217.782L97.8986 216.368ZM97.3456 212.26L95.504 211.48L95.4995 211.491L97.3456 212.26ZM117.491 164.702L115.663 163.89L115.656 163.906L115.649 163.922L117.491 164.702ZM119.229 162.411L120.464 163.984L120.471 163.978L120.478 163.973L119.229 162.411ZM125.628 162.411L124.326 163.93L124.384 163.979L124.445 164.024L125.628 162.411ZM127.445 164.702L129.286 163.922L129.279 163.906L129.272 163.89L127.445 164.702ZM147.59 212.26L149.436 211.491L149.431 211.48L147.59 212.26ZM146.958 216.368L145.543 214.954L145.515 214.982L145.488 215.011L146.958 216.368ZM142.376 216.842L141.199 218.459L141.281 218.519L141.368 218.57L142.376 216.842ZM141.033 215.183L139.186 215.952L139.201 215.987L139.217 216.021L141.033 215.183ZM135.898 202.859L137.744 202.09L137.231 200.859H135.898V202.859ZM109.038 202.859V200.859H107.704L107.191 202.09L109.038 202.859ZM103.903 215.183L105.719 216.021L105.734 215.987L105.749 215.952L103.903 215.183ZM102.481 216.842L103.554 218.529L103.572 218.518L103.59 218.506L102.481 216.842ZM111.803 196.302L109.956 195.535L108.806 198.302H111.803V196.302ZM133.133 196.302V198.302H136.129L134.98 195.535L133.133 196.302ZM122.468 170.627L124.315 169.86L122.468 165.413L120.621 169.86L122.468 170.627ZM100.506 215.395C99.9314 215.395 99.5876 215.229 99.3128 214.954L96.4844 217.782C97.579 218.877 98.9732 219.395 100.506 219.395V215.395ZM99.3682 215.011C99.1038 214.725 98.9506 214.379 98.9506 213.84H94.9506C94.9506 215.303 95.4294 216.642 96.429 217.725L99.3682 215.011ZM98.9506 213.84C98.9506 213.797 98.9743 213.551 99.1918 213.029L95.4995 211.491C95.1903 212.233 94.9506 213.041 94.9506 213.84H98.9506ZM99.1872 213.04L119.332 165.482L115.649 163.922L95.504 211.48L99.1872 213.04ZM119.318 165.514C119.622 164.832 120.01 164.341 120.464 163.984L117.993 160.838C116.973 161.64 116.202 162.676 115.663 163.89L119.318 165.514ZM120.478 163.973C120.88 163.651 121.376 163.463 122.073 163.463V159.463C120.558 159.463 119.158 159.907 117.979 160.849L120.478 163.973ZM122.073 163.463H122.863V159.463H122.073V163.463ZM122.863 163.463C123.562 163.463 124.001 163.651 124.326 163.93L126.929 160.892C125.779 159.907 124.376 159.463 122.863 159.463V163.463ZM124.445 164.024C124.937 164.385 125.329 164.865 125.617 165.514L129.272 163.89C128.718 162.643 127.898 161.596 126.81 160.798L124.445 164.024ZM125.603 165.482L145.748 213.04L149.431 211.48L129.286 163.922L125.603 165.482ZM145.743 213.029C145.961 213.551 145.985 213.797 145.985 213.84H149.985C149.985 213.041 149.745 212.233 149.436 211.491L145.743 213.029ZM145.985 213.84C145.985 214.33 145.839 214.658 145.543 214.954L148.372 217.782C149.445 216.709 149.985 215.351 149.985 213.84H145.985ZM145.488 215.011C145.286 215.23 145.005 215.395 144.43 215.395V219.395C145.961 219.395 147.365 218.875 148.427 217.725L145.488 215.011ZM144.43 215.395C144.044 215.395 143.707 215.303 143.383 215.114L141.368 218.57C142.308 219.118 143.341 219.395 144.43 219.395V215.395ZM143.552 215.225C143.264 215.015 143.029 214.736 142.849 214.345L139.217 216.021C139.668 216.999 140.329 217.827 141.199 218.459L143.552 215.225ZM142.879 214.414L137.744 202.09L134.051 203.628L139.186 215.952L142.879 214.414ZM135.898 200.859H109.038V204.859H135.898V200.859ZM107.191 202.09L102.056 214.414L105.749 215.952L110.884 203.628L107.191 202.09ZM102.087 214.345C101.927 214.692 101.698 214.96 101.371 215.178L103.59 218.506C104.527 217.882 105.247 217.044 105.719 216.021L102.087 214.345ZM101.407 215.155C101.172 215.304 100.892 215.395 100.506 215.395V219.395C101.594 219.395 102.63 219.117 103.554 218.529L101.407 215.155ZM111.803 198.302H133.133V194.302H111.803V198.302ZM134.98 195.535L124.315 169.86L120.621 171.394L131.286 197.069L134.98 195.535ZM120.621 169.86L109.956 195.535L113.65 197.069L124.315 171.394L120.621 169.86ZM166.162 216.368L167.576 214.954L166.162 216.368ZM166.162 162.569L167.576 163.983L167.602 163.957L167.628 163.93L166.162 162.569ZM171.218 162.569L169.752 163.93L169.803 163.984L169.857 164.035L171.218 162.569ZM171.218 216.368L169.857 214.902L169.83 214.928L169.804 214.954L171.218 216.368ZM168.69 215.395C168.2 215.395 167.872 215.25 167.576 214.954L164.748 217.782C165.821 218.856 167.179 219.395 168.69 219.395V215.395ZM167.576 214.954C167.28 214.658 167.135 214.33 167.135 213.84H163.135C163.135 215.351 163.674 216.709 164.748 217.782L167.576 214.954ZM167.135 213.84V165.097H163.135V213.84H167.135ZM167.135 165.097C167.135 164.607 167.28 164.279 167.576 163.983L164.748 161.155C163.674 162.228 163.135 163.586 163.135 165.097H167.135ZM167.628 163.93C167.936 163.598 168.249 163.463 168.69 163.463V159.463C167.13 159.463 165.757 160.066 164.696 161.208L167.628 163.93ZM168.69 163.463C169.131 163.463 169.444 163.598 169.752 163.93L172.684 161.208C171.623 160.066 170.25 159.463 168.69 159.463V163.463ZM169.857 164.035C170.189 164.343 170.324 164.656 170.324 165.097H174.324C174.324 163.537 173.721 162.164 172.579 161.103L169.857 164.035ZM170.324 165.097V213.84H174.324V165.097H170.324ZM170.324 213.84C170.324 214.281 170.189 214.594 169.857 214.902L172.579 217.834C173.721 216.773 174.324 215.4 174.324 213.84H170.324ZM169.804 214.954C169.508 215.25 169.18 215.395 168.69 215.395V219.395C170.201 219.395 171.559 218.856 172.632 217.782L169.804 214.954Z" fill="white"/>
<g filter="url(#filter1_d_0_66)">
<path d="M272 102H192C179.85 102 170 92.1503 170 80V0L272 102Z" fill="url(#paint2_linear_0_66)"/>
</g>
</g>
<defs>
<filter id="filter0_f_0_66" x="9" y="110" width="256" height="162" filterUnits="userSpaceOnUse" color-interpolation-filters="sRGB">
<feFlood flood-opacity="0" result="BackgroundImageFix"/>
<feBlend mode="normal" in="SourceGraphic" in2="BackgroundImageFix" result="shape"/>
<feGaussianBlur stdDeviation="19.5" result="effect1_foregroundBlur_0_66"/>
</filter>
<filter id="filter1_d_0_66" x="147" y="-24" width="152" height="152" filterUnits="userSpaceOnUse" color-interpolation-filters="sRGB">
<feFlood flood-opacity="0" result="BackgroundImageFix"/>
<feColorMatrix in="SourceAlpha" type="matrix" values="0 0 0 0 0 0 0 0 0 0 0 0 0 0 0 0 0 0 127 0" result="hardAlpha"/>
<feOffset dx="2" dy="1"/>
<feGaussianBlur stdDeviation="12.5"/>
<feColorMatrix type="matrix" values="0 0 0 0 0 0 0 0 0 0 0 0 0 0 0 0 0 0 0.33 0"/>
<feBlend mode="normal" in2="BackgroundImageFix" result="effect1_dropShadow_0_66"/>
<feBlend mode="normal" in="SourceGraphic" in2="effect1_dropShadow_0_66" result="shape"/>
</filter>
<linearGradient id="paint0_linear_0_66" x1="136" y1="0" x2="136" y2="308" gradientUnits="userSpaceOnUse">
<stop stop-color="#FF7979"/>
<stop offset="1" stop-color="#E85555"/>
</linearGradient>
<linearGradient id="paint1_linear_0_66" x1="136" y1="0" x2="136" y2="308" gradientUnits="userSpaceOnUse">
<stop stop-color="#FFA216"/>
<stop offset="1" stop-color="#EF8100"/>
</linearGradient>
<linearGradient id="paint2_linear_0_66" x1="221" y1="0" x2="221" y2="102" gradientUnits="userSpaceOnUse">
<stop stop-color="#FF7A1B"/>
<stop offset="1" stop-color="#E86100"/>
</linearGradient>
</defs>
</svg>
