<svg width="272" height="308" viewBox="0 0 272 308" fill="none" xmlns="http://www.w3.org/2000/svg">
<mask id="mask0_0_199" style="mask-type:alpha" maskUnits="userSpaceOnUse" x="0" y="0" width="272" height="308">
<path d="M250 308H22C9.84974 308 0 298.15 0 286V22C0 9.84974 9.84974 0 22 0H170L272 102V286C272 298.15 262.15 308 250 308Z" fill="url(#paint0_linear_0_199)"/>
</mask>
<g mask="url(#mask0_0_199)">
<path d="M250 308H22C9.84974 308 0 298.15 0 286V22C0 9.84974 9.84974 0 22 0H170L272 102V286C272 298.15 262.15 308 250 308Z" fill="url(#paint1_linear_0_199)"/>
<path d="M62.218 217.395C61.2173 217.395 60.3747 217.053 59.69 216.368C59.0053 215.683 58.663 214.841 58.663 213.84V165.492C58.663 164.491 59.0053 163.649 59.69 162.964C60.3747 162.227 61.2173 161.858 62.218 161.858H80.23C85.2333 161.858 89.315 162.701 92.475 164.386C95.635 166.071 97.8997 168.231 99.269 170.864C100.638 173.497 101.323 176.341 101.323 179.396C101.323 182.451 100.638 185.295 99.269 187.928C97.8997 190.561 95.635 192.721 92.475 194.406C89.315 196.091 85.2333 196.934 80.23 196.934H65.852V213.84C65.852 214.841 65.4833 215.683 64.746 216.368C64.0613 217.053 63.2187 217.395 62.218 217.395ZM79.519 190.14C84.891 190.14 88.6567 189.113 90.816 187.059C93.028 185.005 94.134 182.451 94.134 179.396C94.134 176.341 93.028 173.787 90.816 171.733C88.6567 169.679 84.891 168.652 79.519 168.652H65.852V190.14H79.519ZM134.651 217.79C127.962 217.79 121.695 216.526 115.849 213.998C115.217 213.735 114.69 213.313 114.269 212.734C113.848 212.102 113.637 211.444 113.637 210.759C113.637 209.864 113.927 209.1 114.506 208.468C115.138 207.783 115.928 207.441 116.876 207.441C117.403 207.441 117.903 207.546 118.377 207.757C123.222 209.916 128.41 210.996 133.94 210.996C143.157 210.996 147.765 207.968 147.765 201.911C147.765 200.331 147.159 199.014 145.948 197.961C144.789 196.908 143.341 196.091 141.603 195.512C139.865 194.88 137.39 194.143 134.177 193.3C129.911 192.194 126.461 191.141 123.828 190.14C121.195 189.087 118.93 187.533 117.034 185.479C115.138 183.425 114.19 180.686 114.19 177.263C114.19 174.261 114.98 171.549 116.56 169.126C118.14 166.651 120.457 164.702 123.512 163.28C126.619 161.805 130.332 161.068 134.651 161.068C140.444 161.068 145.685 161.937 150.372 163.675C151.847 164.202 152.584 165.255 152.584 166.835C152.584 167.678 152.294 168.441 151.715 169.126C151.136 169.811 150.372 170.153 149.424 170.153C149.108 170.153 148.687 170.048 148.16 169.837C144.052 168.415 139.812 167.704 135.441 167.704C131.28 167.704 127.883 168.494 125.25 170.074C122.669 171.654 121.379 173.866 121.379 176.71C121.379 178.606 121.985 180.16 123.196 181.371C124.46 182.53 126.014 183.451 127.857 184.136C129.753 184.768 132.307 185.453 135.52 186.19C139.681 187.191 143.025 188.191 145.553 189.192C148.134 190.193 150.319 191.746 152.11 193.853C153.953 195.96 154.875 198.804 154.875 202.385C154.875 205.334 154.032 207.994 152.347 210.364C150.662 212.681 148.292 214.498 145.237 215.815C142.182 217.132 138.654 217.79 134.651 217.79ZM175.037 217C174.036 217 173.193 216.658 172.509 215.973C171.824 215.288 171.482 214.446 171.482 213.445V165.492C171.482 164.491 171.824 163.649 172.509 162.964C173.193 162.227 174.036 161.858 175.037 161.858H190.916C196.92 161.858 202.002 163.201 206.163 165.887C210.376 168.52 213.536 171.944 215.643 176.157C217.749 180.37 218.803 184.794 218.803 189.429C218.803 194.064 217.749 198.488 215.643 202.701C213.536 206.914 210.376 210.364 206.163 213.05C202.002 215.683 196.92 217 190.916 217H175.037ZM190.047 210.285C194.365 210.285 198.157 209.416 201.423 207.678C204.688 205.887 207.216 203.438 209.007 200.331C210.797 197.171 211.693 193.537 211.693 189.429C211.693 185.321 210.797 181.713 209.007 178.606C207.216 175.446 204.688 172.997 201.423 171.259C198.157 169.468 194.365 168.573 190.047 168.573H178.671V210.285H190.047Z" fill="white"/>
<path d="M59.69 216.368L61.1042 214.954H61.1042L59.69 216.368ZM59.69 162.964L61.1042 164.378L61.1304 164.352L61.1556 164.325L59.69 162.964ZM92.475 164.386L93.4162 162.621L92.475 164.386ZM99.269 170.864L97.4946 171.787L99.269 170.864ZM99.269 187.928L97.4946 187.005L97.4946 187.005L99.269 187.928ZM92.475 194.406L93.4162 196.171L92.475 194.406ZM65.852 196.934V194.934H63.852V196.934H65.852ZM64.746 216.368L63.3851 214.902L63.358 214.928L63.3318 214.954L64.746 216.368ZM90.816 187.059L89.4551 185.593L89.4463 185.602L89.4376 185.61L90.816 187.059ZM90.816 171.733L89.4376 173.182L89.4463 173.19L89.4551 173.199L90.816 171.733ZM65.852 168.652V166.652H63.852V168.652H65.852ZM65.852 190.14H63.852V192.14H65.852V190.14ZM62.218 215.395C61.7279 215.395 61.4 215.25 61.1042 214.954L58.2758 217.782C59.3493 218.856 60.7067 219.395 62.218 219.395V215.395ZM61.1042 214.954C60.8084 214.658 60.663 214.33 60.663 213.84H56.663C56.663 215.351 57.2023 216.709 58.2758 217.782L61.1042 214.954ZM60.663 213.84V165.492H56.663V213.84H60.663ZM60.663 165.492C60.663 165.002 60.8084 164.674 61.1042 164.378L58.2758 161.55C57.2023 162.623 56.663 163.981 56.663 165.492H60.663ZM61.1556 164.325C61.4642 163.993 61.777 163.858 62.218 163.858V159.858C60.6577 159.858 59.2851 160.461 58.2244 161.603L61.1556 164.325ZM62.218 163.858H80.23V159.858H62.218V163.858ZM80.23 163.858C85.0282 163.858 88.7555 164.669 91.5338 166.151L93.4162 162.621C89.8745 160.732 85.4385 159.858 80.23 159.858V163.858ZM91.5338 166.151C94.4123 167.686 96.3472 169.58 97.4946 171.787L101.043 169.941C99.4521 166.881 96.8577 164.457 93.4162 162.621L91.5338 166.151ZM97.4946 171.787C98.7113 174.127 99.323 176.653 99.323 179.396H103.323C103.323 176.03 102.565 172.868 101.043 169.941L97.4946 171.787ZM99.323 179.396C99.323 182.139 98.7113 184.665 97.4946 187.005L101.043 188.851C102.565 185.924 103.323 182.762 103.323 179.396H99.323ZM97.4946 187.005C96.3472 189.212 94.4123 191.106 91.5338 192.641L93.4162 196.171C96.8577 194.335 99.4521 191.911 101.043 188.851L97.4946 187.005ZM91.5338 192.641C88.7555 194.123 85.0282 194.934 80.23 194.934V198.934C85.4385 198.934 89.8745 198.06 93.4162 196.171L91.5338 192.641ZM80.23 194.934H65.852V198.934H80.23V194.934ZM63.852 196.934V213.84H67.852V196.934H63.852ZM63.852 213.84C63.852 214.281 63.7175 214.594 63.3851 214.902L66.1069 217.834C67.2492 216.773 67.852 215.4 67.852 213.84H63.852ZM63.3318 214.954C63.036 215.25 62.7081 215.395 62.218 215.395V219.395C63.7293 219.395 65.0867 218.856 66.1602 217.782L63.3318 214.954ZM79.519 192.14C85.031 192.14 89.4605 191.109 92.1944 188.508L89.4376 185.61C87.8529 187.117 84.751 188.14 79.519 188.14V192.14ZM92.1769 188.525C94.8019 186.087 96.134 182.999 96.134 179.396H92.134C92.134 181.902 91.2541 183.923 89.4551 185.593L92.1769 188.525ZM96.134 179.396C96.134 175.793 94.8019 172.705 92.1769 170.267L89.4551 173.199C91.2541 174.869 92.134 176.89 92.134 179.396H96.134ZM92.1944 170.284C89.4605 167.683 85.031 166.652 79.519 166.652V170.652C84.751 170.652 87.8529 171.675 89.4376 173.182L92.1944 170.284ZM79.519 166.652H65.852V170.652H79.519V166.652ZM63.852 168.652V190.14H67.852V168.652H63.852ZM65.852 192.14H79.519V188.14H65.852V192.14ZM115.849 213.998L116.643 212.162L116.631 212.157L116.618 212.152L115.849 213.998ZM114.269 212.734L112.605 213.843L112.628 213.877L112.652 213.91L114.269 212.734ZM114.506 208.468L113.037 207.111L113.032 207.117L114.506 208.468ZM118.377 207.757L119.191 205.93L119.189 205.929L118.377 207.757ZM145.948 197.961L144.603 199.441L144.619 199.456L144.636 199.47L145.948 197.961ZM141.603 195.512L140.92 197.392L140.945 197.401L140.971 197.409L141.603 195.512ZM134.177 193.3L134.685 191.365L134.679 191.364L134.177 193.3ZM123.828 190.14L123.085 191.997L123.101 192.003L123.118 192.01L123.828 190.14ZM117.034 185.479L115.565 186.836L117.034 185.479ZM116.56 169.126L118.235 170.219L118.241 170.21L118.246 170.202L116.56 169.126ZM123.512 163.28L124.356 165.093L124.363 165.09L124.37 165.087L123.512 163.28ZM150.372 163.675L149.677 165.55L149.688 165.554L149.699 165.558L150.372 163.675ZM151.715 169.126L153.242 170.418L153.242 170.418L151.715 169.126ZM148.16 169.837L148.903 167.98L148.859 167.962L148.814 167.947L148.16 169.837ZM125.25 170.074L124.221 168.359L124.213 168.364L124.206 168.368L125.25 170.074ZM123.196 181.371L121.782 182.785L121.813 182.816L121.845 182.845L123.196 181.371ZM127.857 184.136L127.161 186.011L127.193 186.023L127.225 186.033L127.857 184.136ZM135.52 186.19L135.988 184.245L135.978 184.243L135.968 184.241L135.52 186.19ZM145.553 189.192L144.817 191.052L144.83 191.057L145.553 189.192ZM152.11 193.853L150.586 195.148L150.596 195.159L150.605 195.17L152.11 193.853ZM152.347 210.364L153.965 211.54L153.971 211.532L153.977 211.523L152.347 210.364ZM145.237 215.815L146.029 217.652L145.237 215.815ZM134.651 215.79C128.222 215.79 122.226 214.577 116.643 212.162L115.055 215.834C121.164 218.475 127.703 219.79 134.651 219.79V215.79ZM116.618 212.152C116.341 212.036 116.102 211.854 115.887 211.558L112.652 213.91C113.278 214.772 114.093 215.433 115.08 215.844L116.618 212.152ZM115.933 211.625C115.706 211.284 115.637 211.006 115.637 210.759H111.637C111.637 211.881 111.99 212.92 112.605 213.843L115.933 211.625ZM115.637 210.759C115.637 210.34 115.755 210.065 115.98 209.819L113.032 207.117C112.098 208.135 111.637 209.388 111.637 210.759H115.637ZM115.976 209.825C116.222 209.558 116.475 209.441 116.876 209.441V205.441C115.381 205.441 114.055 206.009 113.037 207.111L115.976 209.825ZM116.876 209.441C117.127 209.441 117.351 209.489 117.565 209.585L119.189 205.929C118.456 205.603 117.678 205.441 116.876 205.441V209.441ZM117.563 209.584C122.675 211.862 128.142 212.996 133.94 212.996V208.996C128.678 208.996 123.769 207.97 119.191 205.93L117.563 209.584ZM133.94 212.996C138.704 212.996 142.624 212.225 145.407 210.396C148.337 208.471 149.765 205.534 149.765 201.911H145.765C145.765 204.344 144.889 205.95 143.211 207.053C141.385 208.253 138.393 208.996 133.94 208.996V212.996ZM149.765 201.911C149.765 199.742 148.901 197.878 147.26 196.452L144.636 199.47C145.418 200.151 145.765 200.92 145.765 201.911H149.765ZM147.293 196.481C145.897 195.211 144.193 194.267 142.236 193.615L140.971 197.409C142.489 197.915 143.682 198.604 144.603 199.441L147.293 196.481ZM142.287 193.632C140.463 192.969 137.918 192.214 134.685 191.365L133.67 195.235C136.862 196.072 139.268 196.791 140.92 197.392L142.287 193.632ZM134.679 191.364C130.449 190.267 127.077 189.235 124.539 188.27L123.118 192.01C125.846 193.046 129.373 194.121 133.675 195.236L134.679 191.364ZM124.571 188.283C122.21 187.339 120.195 185.954 118.504 184.122L115.565 186.836C117.666 189.112 120.18 190.835 123.085 191.997L124.571 188.283ZM118.504 184.122C117.022 182.517 116.19 180.302 116.19 177.263H112.19C112.19 181.07 113.255 184.333 115.565 186.836L118.504 184.122ZM116.19 177.263C116.19 174.633 116.876 172.303 118.235 170.219L114.885 168.033C113.085 170.794 112.19 173.889 112.19 177.263H116.19ZM118.246 170.202C119.592 168.093 121.594 166.379 124.356 165.093L122.668 161.467C119.32 163.025 116.688 165.209 114.874 168.05L118.246 170.202ZM124.37 165.087C127.15 163.768 130.555 163.068 134.651 163.068V159.068C130.11 159.068 126.089 159.843 122.655 161.473L124.37 165.087ZM134.651 163.068C140.244 163.068 145.244 163.907 149.677 165.55L151.067 161.8C146.125 159.967 140.645 159.068 134.651 159.068V163.068ZM149.699 165.558C150.133 165.713 150.31 165.888 150.393 166.007C150.477 166.127 150.584 166.36 150.584 166.835H154.584C154.584 165.73 154.323 164.646 153.67 163.713C153.015 162.778 152.086 162.163 151.045 161.792L149.699 165.558ZM150.584 166.835C150.584 167.173 150.483 167.485 150.188 167.834L153.242 170.418C154.106 169.397 154.584 168.183 154.584 166.835H150.584ZM150.188 167.834C150.013 168.041 149.822 168.153 149.424 168.153V172.153C150.922 172.153 152.258 171.58 153.242 170.418L150.188 167.834ZM149.424 168.153C149.478 168.153 149.463 168.16 149.356 168.134C149.255 168.108 149.106 168.061 148.903 167.98L147.417 171.694C148.023 171.936 148.726 172.153 149.424 172.153V168.153ZM148.814 167.947C144.495 166.452 140.034 165.704 135.441 165.704V169.704C139.591 169.704 143.61 170.378 147.506 171.727L148.814 167.947ZM135.441 165.704C131.042 165.704 127.257 166.538 124.221 168.359L126.279 171.789C128.51 170.45 131.519 169.704 135.441 169.704V165.704ZM124.206 168.368C121.077 170.284 119.379 173.118 119.379 176.71H123.379C123.379 174.614 124.262 173.024 126.294 171.78L124.206 168.368ZM119.379 176.71C119.379 179.074 120.154 181.157 121.782 182.785L124.61 179.957C123.816 179.162 123.379 178.138 123.379 176.71H119.379ZM121.845 182.845C123.325 184.202 125.11 185.249 127.161 186.011L128.553 182.261C126.917 181.653 125.595 180.857 124.548 179.897L121.845 182.845ZM127.225 186.033C129.208 186.694 131.832 187.396 135.073 188.139L135.968 184.241C132.783 183.51 130.299 182.842 128.49 182.239L127.225 186.033ZM135.052 188.135C139.167 189.124 142.411 190.099 144.817 191.052L146.289 187.332C143.639 186.283 140.194 185.257 135.988 184.245L135.052 188.135ZM144.83 191.057C147.101 191.937 149.011 193.295 150.586 195.148L153.634 192.558C151.628 190.197 149.167 188.448 146.276 187.327L144.83 191.057ZM150.605 195.17C152.048 196.82 152.875 199.149 152.875 202.385H156.875C156.875 198.458 155.859 195.1 153.615 192.536L150.605 195.17ZM152.875 202.385C152.875 204.925 152.158 207.179 150.717 209.205L153.977 211.523C155.907 208.809 156.875 205.743 156.875 202.385H152.875ZM150.73 209.188C149.287 211.171 147.224 212.781 144.445 213.978L146.029 217.652C149.359 216.216 152.036 214.192 153.965 211.54L150.73 209.188ZM144.445 213.978C141.686 215.168 138.436 215.79 134.651 215.79V219.79C138.872 219.79 142.679 219.096 146.029 217.652L144.445 213.978ZM172.509 215.973L173.923 214.559L172.509 215.973ZM172.509 162.964L173.923 164.378L173.949 164.352L173.974 164.325L172.509 162.964ZM206.163 165.887L205.078 167.567L205.09 167.575L205.103 167.583L206.163 165.887ZM215.643 176.157L213.854 177.051L215.643 176.157ZM215.643 202.701L213.854 201.807L215.643 202.701ZM206.163 213.05L207.232 214.74L207.238 214.736L206.163 213.05ZM201.423 207.678L202.362 209.443L202.374 209.438L202.384 209.432L201.423 207.678ZM209.007 200.331L210.74 201.33L210.743 201.323L210.747 201.317L209.007 200.331ZM209.007 178.606L207.267 179.592L207.27 179.598L207.274 179.605L209.007 178.606ZM201.423 171.259L200.461 173.013L200.472 173.019L200.483 173.024L201.423 171.259ZM178.671 168.573V166.573H176.671V168.573H178.671ZM178.671 210.285H176.671V212.285H178.671V210.285ZM175.037 215C174.547 215 174.219 214.855 173.923 214.559L171.095 217.387C172.168 218.461 173.526 219 175.037 219V215ZM173.923 214.559C173.627 214.263 173.482 213.935 173.482 213.445H169.482C169.482 214.956 170.021 216.314 171.095 217.387L173.923 214.559ZM173.482 213.445V165.492H169.482V213.445H173.482ZM173.482 165.492C173.482 165.002 173.627 164.674 173.923 164.378L171.095 161.55C170.021 162.623 169.482 163.981 169.482 165.492H173.482ZM173.974 164.325C174.283 163.993 174.596 163.858 175.037 163.858V159.858C173.476 159.858 172.104 160.461 171.043 161.603L173.974 164.325ZM175.037 163.858H190.916V159.858H175.037V163.858ZM190.916 163.858C196.617 163.858 201.304 165.131 205.078 167.567L207.248 164.207C202.701 161.271 197.222 159.858 190.916 159.858V163.858ZM205.103 167.583C209.022 170.032 211.921 173.186 213.854 177.051L217.432 175.263C215.151 170.702 211.73 167.008 207.223 164.191L205.103 167.583ZM213.854 177.051C215.824 180.992 216.803 185.11 216.803 189.429H220.803C220.803 184.479 219.675 179.749 217.432 175.263L213.854 177.051ZM216.803 189.429C216.803 193.748 215.824 197.866 213.854 201.807L217.432 203.595C219.675 199.109 220.803 194.379 220.803 189.429H216.803ZM213.854 201.807C211.919 205.676 209.015 208.86 205.088 211.364L207.238 214.736C211.737 211.868 215.153 208.152 217.432 203.595L213.854 201.807ZM205.093 211.36C201.316 213.75 196.625 215 190.916 215V219C197.215 219 202.688 217.616 207.232 214.74L205.093 211.36ZM190.916 215H175.037V219H190.916V215ZM190.047 212.285C194.638 212.285 198.763 211.359 202.362 209.443L200.483 205.913C197.552 207.473 194.093 208.285 190.047 208.285V212.285ZM202.384 209.432C205.958 207.472 208.759 204.767 210.74 201.33L207.274 199.332C205.674 202.11 203.418 204.303 200.461 205.924L202.384 209.432ZM210.747 201.317C212.729 197.819 213.693 193.837 213.693 189.429H209.693C209.693 193.237 208.866 196.523 207.267 199.345L210.747 201.317ZM213.693 189.429C213.693 185.022 212.729 181.06 210.74 177.607L207.274 179.605C208.865 182.366 209.693 185.62 209.693 189.429H213.693ZM210.747 177.62C208.765 174.123 205.957 171.407 202.362 169.494L200.483 173.024C203.42 174.587 205.667 176.769 207.267 179.592L210.747 177.62ZM202.384 169.505C198.78 167.529 194.648 166.573 190.047 166.573V170.573C194.083 170.573 197.535 171.408 200.461 173.013L202.384 169.505ZM190.047 166.573H178.671V170.573H190.047V166.573ZM176.671 168.573V210.285H180.671V168.573H176.671ZM178.671 212.285H190.047V208.285H178.671V212.285Z" fill="white"/>
<g filter="url(#filter0_d_0_199)">
<path d="M272 102H192C179.85 102 170 92.1503 170 80V0L272 102Z" fill="url(#paint2_linear_0_199)"/>
</g>
</g>
<defs>
<filter id="filter0_d_0_199" x="147" y="-24" width="152" height="152" filterUnits="userSpaceOnUse" color-interpolation-filters="sRGB">
<feFlood flood-opacity="0" result="BackgroundImageFix"/>
<feColorMatrix in="SourceAlpha" type="matrix" values="0 0 0 0 0 0 0 0 0 0 0 0 0 0 0 0 0 0 127 0" result="hardAlpha"/>
<feOffset dx="2" dy="1"/>
<feGaussianBlur stdDeviation="12.5"/>
<feColorMatrix type="matrix" values="0 0 0 0 0 0 0 0 0 0 0 0 0 0 0 0 0 0 0.33 0"/>
<feBlend mode="normal" in2="BackgroundImageFix" result="effect1_dropShadow_0_199"/>
<feBlend mode="normal" in="SourceGraphic" in2="effect1_dropShadow_0_199" result="shape"/>
</filter>
<linearGradient id="paint0_linear_0_199" x1="136" y1="0" x2="136" y2="308" gradientUnits="userSpaceOnUse">
<stop stop-color="#FF7979"/>
<stop offset="1" stop-color="#E85555"/>
</linearGradient>
<linearGradient id="paint1_linear_0_199" x1="136" y1="0" x2="136" y2="308" gradientUnits="userSpaceOnUse">
<stop stop-color="#9391FC"/>
<stop offset="1" stop-color="#5B59EF"/>
</linearGradient>
<linearGradient id="paint2_linear_0_199" x1="221" y1="0" x2="221" y2="102" gradientUnits="userSpaceOnUse">
<stop stop-color="#7371F1"/>
<stop offset="1" stop-color="#504DE8"/>
</linearGradient>
</defs>
</svg>
